<svg width="32" height="33" viewBox="0 0 32 33" fill="none" xmlns="http://www.w3.org/2000/svg">
<path fill-rule="evenodd" clip-rule="evenodd" d="M4.80005 8.50002C4.80005 8.07568 4.96862 7.66871 5.26868 7.36865C5.56874 7.0686 5.9757 6.90002 6.40005 6.90002H25.6C26.0244 6.90002 26.4314 7.0686 26.7314 7.36865C27.0315 7.66871 27.2001 8.07568 27.2001 8.50002C27.2001 8.92437 27.0315 9.33134 26.7314 9.6314C26.4314 9.93145 26.0244 10.1 25.6 10.1H6.40005C5.9757 10.1 5.56874 9.93145 5.26868 9.6314C4.96862 9.33134 4.80005 8.92437 4.80005 8.50002ZM4.80005 16.5C4.80005 16.0757 4.96862 15.6687 5.26868 15.3687C5.56874 15.0686 5.9757 14.9 6.40005 14.9H25.6C26.0244 14.9 26.4314 15.0686 26.7314 15.3687C27.0315 15.6687 27.2001 16.0757 27.2001 16.5C27.2001 16.9244 27.0315 17.3313 26.7314 17.6314C26.4314 17.9315 26.0244 18.1 25.6 18.1H6.40005C5.9757 18.1 5.56874 17.9315 5.26868 17.6314C4.96862 17.3313 4.80005 16.9244 4.80005 16.5ZM4.80005 24.5C4.80005 24.0757 4.96862 23.6687 5.26868 23.3687C5.56874 23.0686 5.9757 22.9 6.40005 22.9H25.6C26.0244 22.9 26.4314 23.0686 26.7314 23.3687C27.0315 23.6687 27.2001 24.0757 27.2001 24.5C27.2001 24.9244 27.0315 25.3313 26.7314 25.6314C26.4314 25.9315 26.0244 26.1 25.6 26.1H6.40005C5.9757 26.1 5.56874 25.9315 5.26868 25.6314C4.96862 25.3313 4.80005 24.9244 4.80005 24.5Z" fill="#27272A"/>
</svg>
